<?xml version="1.0" encoding="UTF-8" standalone="no"?>
<!DOCTYPE svg PUBLIC "-//W3C//DTD SVG 20010904//EN"
              "http://www.w3.org/TR/2001/REC-SVG-20010904/DTD/svg10.dtd">

<svg xmlns="http://www.w3.org/2000/svg"
     width="4.36111in" height="1.25in"
     viewBox="0 0 314 90">
  <path id="Seleção"
        fill="#3a6b35" stroke="#3a6b35" stroke-width="1"
        d="M 75.00,32.00
           C 75.00,28.43 74.79,24.38 76.15,21.02
             79.87,11.77 92.11,13.59 100.00,15.00
             100.00,15.00 98.00,24.00 98.00,24.00
             90.66,23.78 88.29,23.56 88.00,32.00
             88.00,32.00 97.00,32.00 97.00,32.00
             97.00,32.00 97.00,41.00 97.00,41.00
             97.00,41.00 88.00,41.00 88.00,41.00
             88.00,41.00 88.00,77.00 88.00,77.00
             88.00,77.00 75.00,77.00 75.00,77.00
             75.00,77.00 75.00,41.00 75.00,41.00
             75.00,41.00 69.00,41.00 69.00,41.00
             69.00,41.00 69.00,32.00 69.00,32.00
             69.00,32.00 75.00,32.00 75.00,32.00 Z
           M 4.00,77.00
           C 4.00,77.00 21.81,29.00 21.81,29.00
             26.33,17.32 25.61,15.13 33.00,15.00
             35.64,14.96 40.01,14.52 41.93,16.57
             43.41,18.15 48.59,31.97 49.80,35.00
             49.80,35.00 66.00,77.00 66.00,77.00
             62.95,77.00 54.71,77.50 52.41,75.98
             49.41,73.99 48.81,68.10 46.30,65.31
             43.37,62.05 36.13,62.99 32.00,63.00
             29.24,63.01 25.71,62.67 23.50,64.60
             20.45,67.25 19.88,74.07 17.30,76.01
             15.26,77.54 6.84,77.00 4.00,77.00 Z
           M 105.00,15.00
           C 105.00,15.00 117.00,15.00 117.00,15.00
             117.00,15.00 117.00,25.00 117.00,25.00
             117.00,25.00 105.00,25.00 105.00,25.00
             105.00,25.00 105.00,15.00 105.00,15.00 Z
           M 35.00,32.00
           C 31.80,36.48 28.26,47.47 27.00,53.00
             27.00,53.00 42.00,53.00 42.00,53.00
             42.00,53.00 35.00,32.00 35.00,32.00 Z
           M 129.00,45.00
           C 131.30,30.93 140.33,30.86 152.00,31.00
             157.05,31.06 162.07,31.64 165.28,36.11
             167.63,39.38 167.95,44.10 168.00,48.00
             168.14,60.64 167.11,64.18 170.00,77.00
             164.86,77.00 158.98,78.64 157.00,73.00
             150.47,77.24 148.89,78.22 141.00,77.98
             130.80,77.69 124.44,67.29 129.45,58.09
             133.26,51.10 142.29,51.16 149.00,49.33
             151.37,48.68 155.27,47.42 153.83,44.10
             150.33,36.01 140.35,45.33 138.79,45.67
             138.79,45.67 129.00,45.00 129.00,45.00 Z
           M 192.00,36.00
           C 198.16,30.34 202.25,29.41 210.00,33.00
             210.00,33.00 207.00,45.02 207.00,45.02
             204.25,44.64 200.64,43.68 198.11,45.02
             194.94,46.73 193.79,50.70 193.15,54.00
             193.15,54.00 193.15,77.00 193.15,77.00
             193.15,77.00 180.00,77.00 180.00,77.00
             180.00,77.00 180.00,32.00 180.00,32.00
             180.00,32.00 192.00,32.00 192.00,32.00
             192.00,32.00 192.00,36.00 192.00,36.00 Z
           M 214.00,45.00
           C 216.30,30.93 225.33,30.86 237.00,31.00
             242.05,31.06 247.07,31.64 250.28,36.11
             252.63,39.38 252.95,44.10 253.00,48.00
             253.16,61.55 252.21,63.13 255.00,77.00
             249.86,77.00 243.98,78.64 242.00,73.00
             235.45,77.26 233.91,78.21 226.00,77.98
             215.56,77.68 209.46,67.47 214.45,58.04
             218.18,51.01 227.28,51.16 234.00,49.33
             236.35,48.69 240.29,47.40 238.83,44.10
             235.44,36.41 225.05,45.40 223.79,45.67
             223.79,45.67 214.00,45.00 214.00,45.00 Z
           M 105.00,32.00
           C 105.00,32.00 117.00,32.00 117.00,32.00
             117.00,32.00 117.00,77.00 117.00,77.00
             117.00,77.00 105.00,77.00 105.00,77.00
             105.00,77.00 105.00,32.00 105.00,32.00 Z
           M 261.00,32.00
           C 261.00,32.00 276.39,32.99 276.39,32.99
             276.39,32.99 284.00,43.00 284.00,43.00
             284.00,43.00 291.18,33.02 291.18,33.02
             291.18,33.02 306.00,32.00 306.00,32.00
             306.00,32.00 291.00,54.00 291.00,54.00
             295.44,57.98 304.87,71.45 307.00,77.00
             307.00,77.00 292.18,75.98 292.18,75.98
             292.18,75.98 283.00,64.00 283.00,64.00
             281.53,67.84 277.87,74.81 273.91,76.40
             271.63,77.31 262.95,77.00 260.00,77.00
             260.00,77.00 270.58,61.00 270.58,61.00
             270.58,61.00 274.53,53.58 274.53,53.58
             274.53,53.58 270.71,47.00 270.71,47.00
             270.71,47.00 261.00,32.00 261.00,32.00 Z
           M 155.00,58.00
           C 155.00,58.00 149.00,58.81 149.00,58.81
             149.00,58.81 145.02,59.88 145.02,59.88
             133.65,64.72 148.80,73.04 153.83,64.78
             155.05,62.77 154.94,60.26 155.00,58.00 Z
           M 240.00,58.00
           C 240.00,58.00 233.00,59.10 233.00,59.10
             231.68,59.37 230.25,59.66 229.06,60.31
             219.85,65.36 234.38,72.05 238.83,64.77
             240.05,62.77 239.94,60.25 240.00,58.00 Z" />
</svg>
